<svg xmlns="http://www.w3.org/2000/svg" viewBox="0 0 64 64"><rect x="13" y="8" width="42" height="10" rx="4" fill="#16233B"/><rect x="3" y="20" width="6" height="7.5" rx="1.8" fill="#94A3B8"/><rect x="3" y="31" width="6" height="7.5" rx="1.8" fill="#94A3B8"/><rect x="8" y="12" width="48" height="34" rx="8" fill="#0F766E"/><circle cx="23.0" cy="28.0" r="8.3" fill="#16233B"/><polygon points="26.90,28.07 30.46,27.22 29.50,31.75 26.59,29.52" fill="#263349"/><polygon points="24.89,31.41 27.41,34.07 23.00,35.50 23.48,31.87" fill="#263349"/><polygon points="20.99,31.34 19.95,34.85 16.50,31.75 19.89,30.35" fill="#263349"/><polygon points="19.10,27.93 15.54,28.78 16.50,24.25 19.41,26.48" fill="#263349"/><polygon points="21.11,24.59 18.59,21.93 23.00,20.50 22.52,24.13" fill="#263349"/><polygon points="25.01,24.66 26.05,21.15 29.50,24.25 26.11,25.65" fill="#263349"/><circle cx="23.0" cy="28.0" r="3.1" fill="#F59E0B"/><circle cx="21.85" cy="26.85" r="1.05" fill="#FFFFFF"/><circle cx="41.0" cy="28.0" r="8.3" fill="#16233B"/><polygon points="44.47,29.77 48.05,30.57 45.19,34.22 43.56,30.94" fill="#263349"/><polygon points="41.20,31.89 42.30,35.39 37.71,34.74 39.73,31.69" fill="#263349"/><polygon points="37.73,30.12 35.25,32.82 33.52,28.52 37.17,28.74" fill="#263349"/><polygon points="37.53,26.23 33.95,25.43 36.81,21.78 38.44,25.06" fill="#263349"/><polygon points="40.80,24.11 39.70,20.61 44.29,21.26 42.27,24.31" fill="#263349"/><polygon points="44.27,25.88 46.75,23.18 48.48,27.48 44.83,27.26" fill="#263349"/><circle cx="41.0" cy="28.0" r="3.1" fill="#F59E0B"/><circle cx="39.85" cy="26.85" r="1.05" fill="#FFFFFF"/><rect x="15" y="45" width="34" height="5.4" rx="2.7" fill="#16233B"/><rect x="17.60" y="50" width="4.0" height="4.6" rx="1.3" fill="#F59E0B"/><rect x="22.85" y="50" width="4.0" height="4.6" rx="1.3" fill="#F59E0B"/><rect x="28.10" y="50" width="4.0" height="4.6" rx="1.3" fill="#F59E0B"/><rect x="33.35" y="50" width="4.0" height="4.6" rx="1.3" fill="#F59E0B"/><rect x="41.10" y="50" width="4.0" height="4.6" rx="1.3" fill="#F59E0B"/><rect x="46.35" y="50" width="4.0" height="4.6" rx="1.3" fill="#F59E0B"/></svg>