<svg xmlns="http://www.w3.org/2000/svg" viewBox="0 0 272 64" role="img" aria-label="GPUscale · gpuscale.net"><rect x="13" y="8" width="42" height="10" rx="4" fill="#16233B"/><rect x="3" y="20" width="6" height="7.5" rx="1.8" fill="#94A3B8"/><rect x="3" y="31" width="6" height="7.5" rx="1.8" fill="#94A3B8"/><rect x="8" y="12" width="48" height="34" rx="8" fill="#0F766E"/><circle cx="23.0" cy="28.0" r="8.3" fill="#16233B"/><polygon points="26.90,28.07 30.46,27.22 29.50,31.75 26.59,29.52" fill="#263349"/><polygon points="24.89,31.41 27.41,34.07 23.00,35.50 23.48,31.87" fill="#263349"/><polygon points="20.99,31.34 19.95,34.85 16.50,31.75 19.89,30.35" fill="#263349"/><polygon points="19.10,27.93 15.54,28.78 16.50,24.25 19.41,26.48" fill="#263349"/><polygon points="21.11,24.59 18.59,21.93 23.00,20.50 22.52,24.13" fill="#263349"/><polygon points="25.01,24.66 26.05,21.15 29.50,24.25 26.11,25.65" fill="#263349"/><circle cx="23.0" cy="28.0" r="3.1" fill="#F59E0B"/><circle cx="21.85" cy="26.85" r="1.05" fill="#FFFFFF"/><circle cx="41.0" cy="28.0" r="8.3" fill="#16233B"/><polygon points="44.47,29.77 48.05,30.57 45.19,34.22 43.56,30.94" fill="#263349"/><polygon points="41.20,31.89 42.30,35.39 37.71,34.74 39.73,31.69" fill="#263349"/><polygon points="37.73,30.12 35.25,32.82 33.52,28.52 37.17,28.74" fill="#263349"/><polygon points="37.53,26.23 33.95,25.43 36.81,21.78 38.44,25.06" fill="#263349"/><polygon points="40.80,24.11 39.70,20.61 44.29,21.26 42.27,24.31" fill="#263349"/><polygon points="44.27,25.88 46.75,23.18 48.48,27.48 44.83,27.26" fill="#263349"/><circle cx="41.0" cy="28.0" r="3.1" fill="#F59E0B"/><circle cx="39.85" cy="26.85" r="1.05" fill="#FFFFFF"/><rect x="15" y="45" width="34" height="5.4" rx="2.7" fill="#16233B"/><rect x="17.60" y="50" width="4.0" height="4.6" rx="1.3" fill="#F59E0B"/><rect x="22.85" y="50" width="4.0" height="4.6" rx="1.3" fill="#F59E0B"/><rect x="28.10" y="50" width="4.0" height="4.6" rx="1.3" fill="#F59E0B"/><rect x="33.35" y="50" width="4.0" height="4.6" rx="1.3" fill="#F59E0B"/><rect x="41.10" y="50" width="4.0" height="4.6" rx="1.3" fill="#F59E0B"/><rect x="46.35" y="50" width="4.0" height="4.6" rx="1.3" fill="#F59E0B"/><g fill="#16233B"><path transform="translate(76.00,46) scale(0.040000,-0.040000)" d="M388 -12Q226 -12 138.5 74.5Q51 161 51 343Q51 523 144.5 610.5Q238 698 407 698Q496 698 570.5 671.0Q645 644 689.5 588.5Q734 533 734 449H583Q583 490 559.5 518.5Q536 547 497.0 561.5Q458 576 412 576Q205 576 205 358V328Q205 216 254.5 163.0Q304 110 402 110Q482 110 534.0 146.5Q586 183 586 250V257H381V371H734V0H636L623 74Q578 30 522.0 9.0Q466 -12 388 -12Z"/><path transform="translate(108.08,46) scale(0.040000,-0.040000)" d="M76 0V686H433Q543 686 600.0 626.0Q657 566 657 464Q657 361 597.5 300.0Q538 239 428 239H225V0ZM225 361H408Q455 361 480.5 388.0Q506 415 506 463Q506 512 481.5 538.0Q457 564 408 564H225Z"/><path transform="translate(135.32,46) scale(0.040000,-0.040000)" d="M373 -12Q232 -12 152.0 55.5Q72 123 72 259V686H222V263Q222 188 261.0 149.0Q300 110 373 110Q445 110 485.0 149.0Q525 188 525 263V686H675V259Q675 123 595.0 55.5Q515 -12 373 -12Z"/><path transform="translate(165.24,46) scale(0.040000,-0.040000)" d="M277 -12Q168 -12 103.5 33.0Q39 78 39 153Q39 157 39.5 161.0Q40 165 40 167H174Q174 164 174 159Q174 120 207.0 104.5Q240 89 281 89Q304 89 327.0 93.5Q350 98 365.5 109.5Q381 121 381 141Q381 165 361.5 178.0Q342 191 310.5 199.0Q279 207 242 217Q208 225 174.5 235.5Q141 246 113.0 263.0Q85 280 68.0 307.5Q51 335 51 377Q51 432 82.0 467.5Q113 503 165.5 520.5Q218 538 284 538Q345 538 395.0 521.0Q445 504 474.5 471.5Q504 439 504 393Q504 386 503.5 379.5Q503 373 503 372H370V380Q370 406 345.5 421.5Q321 437 278 437Q238 437 213.0 424.5Q188 412 188 390Q188 364 219.0 353.0Q250 342 294 330Q330 320 369.5 310.5Q409 301 443.0 285.0Q477 269 498.0 239.5Q519 210 519 160Q519 96 487.0 58.0Q455 20 400.0 4.0Q345 -12 277 -12Z"/><path transform="translate(187.48,46) scale(0.040000,-0.040000)" d="M295 -12Q168 -12 103.0 55.0Q38 122 38 263Q38 404 104.0 471.5Q170 539 295 539Q403 539 468.0 486.5Q533 434 533 326H394Q394 432 293 432Q234 432 206.5 392.0Q179 352 179 274V251Q179 174 206.5 134.5Q234 95 298 95Q401 95 401 201H533Q533 97 468.5 42.5Q404 -12 295 -12Z"/><path transform="translate(210.40,46) scale(0.040000,-0.040000)" d="M203 -12Q177 -12 147.5 -6.0Q118 0 92.0 15.5Q66 31 49.5 60.0Q33 89 33 136Q33 209 75.0 249.0Q117 289 193.0 304.5Q269 320 369 320V359Q369 393 351.0 414.5Q333 436 284 436Q234 436 213.5 419.0Q193 402 193 380V368H58Q57 373 57.0 378.0Q57 383 57 389Q57 457 118.0 497.5Q179 538 283 538Q391 538 449.5 495.5Q508 453 508 370V131Q508 113 518.0 104.5Q528 96 542 96H575V5Q564 0 543.5 -5.5Q523 -11 493 -11Q449 -11 420.5 7.5Q392 26 383 59H376Q349 27 307.5 7.5Q266 -12 203 -12ZM250 93Q305 93 337.0 124.0Q369 155 369 205V234Q313 234 269.0 226.5Q225 219 199.5 201.0Q174 183 174 151Q174 123 194.0 108.0Q214 93 250 93Z"/><path transform="translate(233.60,46) scale(0.040000,-0.040000)" d="M64 0V723H203V0Z"/><path transform="translate(244.28,46) scale(0.040000,-0.040000)" d="M303 -12Q173 -12 105.5 54.5Q38 121 38 263Q38 404 105.0 471.0Q172 538 300 538Q420 538 483.0 473.5Q546 409 546 268V232H179Q181 162 209.0 126.5Q237 91 303 91Q351 91 380.5 115.0Q410 139 410 186H546Q546 120 515.0 76.0Q484 32 429.5 10.0Q375 -12 303 -12ZM181 320H403Q403 381 375.5 408.0Q348 435 302 435Q245 435 216.5 406.5Q188 378 181 320Z"/></g><text x="77" y="61.5" font-family="ui-monospace,Menlo,Consolas,monospace" font-size="10.5" letter-spacing="1.2" fill="#0F766E">gpuscale.net</text></svg>